<svg version="1.0" xmlns="http://www.w3.org/2000/svg"
 width="300.000000pt" height="300.000000pt" viewBox="0 0 300.000000 300.000000"
 preserveAspectRatio="xMidYMid meet">
<g transform="translate(0.000000,300.000000) scale(0.100000,-0.100000)"
fill="#000000" stroke="none">
<path d="M1283 2293 c31 -2 83 -2 115 0 31 2 5 3 -58 3 -63 0 -89 -1 -57 -3z"/>
<path d="M1033 2241 c-37 -27 -78 -73 -98 -111 -11 -21 5 -3 39 44 16 21 49
51 74 67 25 16 41 29 35 29 -5 0 -28 -13 -50 -29z"/>
<path d="M1073 2220 c-55 -31 -109 -92 -98 -110 3 -5 2 -10 -3 -10 -11 0 -35
-60 -27 -68 3 -3 11 10 19 29 23 56 73 117 118 146 24 15 45 28 47 30 2 2 2 5
0 8 -3 2 -28 -9 -56 -25z"/>
<path d="M1365 2235 c23 -8 125 -11 113 -4 -7 5 -38 8 -68 8 -30 0 -50 -2 -45
-4z"/>
<path d="M1328 2183 c17 -2 47 -2 65 0 17 2 3 4 -33 4 -36 0 -50 -2 -32 -4z"/>
<path d="M1142 2144 c-52 -26 -102 -82 -102 -114 1 -8 7 -1 14 16 19 44 63 81
121 104 28 10 43 19 34 19 -8 1 -39 -11 -67 -25z"/>
<path d="M1550 2155 c30 -8 60 -14 65 -14 20 2 -71 27 -95 27 -14 0 0 -6 30
-13z"/>
<path d="M1240 2139 c-43 -19 -120 -84 -120 -101 0 -5 14 7 31 27 35 39 71 61
134 81 22 7 31 13 20 13 -11 0 -40 -9 -65 -20z"/>
<path d="M1445 2149 c22 -4 51 -8 65 -7 16 0 11 3 -15 9 -22 4 -51 8 -65 7
-16 0 -11 -3 15 -9z"/>
<path d="M1846 2151 c-17 -6 -17 -8 -3 -14 8 -3 17 -1 19 5 5 14 75 -21 155
-78 73 -52 136 -124 194 -219 23 -39 38 -61 35 -50 -27 79 -137 213 -229 279
-54 38 -140 87 -149 85 -2 0 -12 -4 -22 -8z"/>
<path d="M1654 2100 c43 -16 99 -42 124 -56 88 -52 182 -154 211 -229 l11 -30
-6 29 c-11 58 -93 157 -181 217 -49 34 -196 99 -223 98 -8 0 20 -13 64 -29z"/>
<path d="M712 2020 l2 -105 6 95 c3 52 2 99 -2 105 -4 5 -7 -38 -6 -95z"/>
<path d="M1295 2096 c-32 -14 -75 -56 -58 -56 6 0 17 7 24 16 8 9 32 25 54 35
22 10 33 18 25 18 -8 0 -28 -6 -45 -13z"/>
<path d="M784 2075 c-4 -11 -9 -23 -11 -27 -2 -5 1 -8 6 -8 6 0 11 8 11 18 1
13 4 11 15 -8 8 -14 14 -20 14 -15 0 6 -6 21 -14 35 -13 24 -14 24 -21 5z"/>
<path d="M1826 2052 c63 -41 113 -86 158 -142 15 -19 25 -28 20 -20 -21 42
-84 106 -147 150 -38 28 -75 50 -80 50 -6 0 16 -17 49 -38z"/>
<path d="M1966 2072 c5 -4 53 -50 108 -102 54 -52 94 -86 88 -74 -14 26 -103
126 -108 121 -3 -2 -20 11 -40 29 -19 19 -41 34 -47 34 -7 0 -7 -3 -1 -8z"/>
<path d="M746 2045 c-3 -13 1 -42 10 -65 17 -41 36 -56 27 -20 -3 11 -9 20
-13 20 -4 0 -5 12 -3 28 4 21 2 24 -6 12 -14 -20 -15 4 -1 31 6 11 7 19 1 19
-5 0 -12 -11 -15 -25z"/>
<path d="M905 1991 c5 -97 55 -189 149 -278 66 -64 167 -131 221 -148 11 -4
-8 9 -41 27 -193 108 -301 241 -324 400 l-9 63 4 -64z"/>
<path d="M1190 2021 c-13 -25 -13 -72 1 -91 8 -12 10 -9 6 13 -2 16 -1 44 3
63 9 38 6 43 -10 15z"/>
<path d="M1485 2021 l40 -5 -45 -6 -45 -7 50 -1 c62 -2 91 12 45 22 -18 3 -44
5 -59 4 -17 -1 -12 -3 14 -7z"/>
<path d="M825 2000 c4 -14 26 -66 51 -117 34 -71 63 -111 123 -175 66 -70 161
-143 161 -124 0 3 -14 13 -32 22 -81 42 -199 181 -252 296 -18 40 -38 84 -45
98 l-11 25 5 -25z"/>
<path d="M1564 1998 c-5 -8 0 -9 14 -6 12 4 22 2 22 -4 0 -6 7 -8 15 -4 8 3
15 1 15 -4 0 -10 39 -25 58 -21 7 1 11 -2 10 -7 -2 -5 18 -30 45 -55 97 -95
91 -179 -17 -228 -23 -10 -34 -19 -26 -19 21 0 81 37 102 63 39 49 14 133 -60
197 -45 40 -48 49 -11 30 10 -6 19 -8 19 -6 0 11 -81 47 -90 41 -6 -3 -10 -2
-10 3 0 6 -14 15 -31 21 -40 14 -46 14 -55 -1z"/>
<path d="M968 1988 c-8 -20 8 -85 24 -94 7 -4 8 -3 4 5 -4 7 -11 33 -15 59 -4
31 -9 41 -13 30z"/>
<path d="M1744 1969 c32 -16 60 -28 62 -26 6 6 -91 57 -107 57 -8 0 12 -14 45
-31z"/>
<path d="M1346 1969 c-19 -15 -26 -29 -24 -52 l1 -32 4 33 c3 24 13 38 36 53
18 10 27 19 21 19 -6 0 -23 -9 -38 -21z"/>
<path d="M1111 1947 c-2 -32 50 -119 98 -166 46 -45 141 -102 191 -115 14 -4
-8 9 -47 28 -113 54 -204 150 -234 246 -5 17 -8 19 -8 7z"/>
<path d="M1480 1950 c20 -13 77 -13 85 0 4 6 -14 10 -47 10 -38 0 -49 -3 -38
-10z"/>
<path d="M1251 1932 c-2 -50 58 -121 139 -162 61 -31 61 -23 0 11 -85 46 -115
80 -131 144 -6 25 -7 26 -8 7z"/>
<path d="M1419 1929 l-24 -21 25 16 c33 21 47 20 27 -2 -10 -10 -17 -28 -17
-39 0 -24 44 -67 62 -60 9 4 8 6 -3 6 -22 1 -49 33 -49 59 0 11 9 27 20 35 18
13 19 15 5 21 -22 8 -20 9 -46 -15z"/>
<path d="M1576 1942 c-3 -4 10 -16 29 -26 18 -10 39 -32 46 -48 10 -26 9 -33
-11 -61 -22 -30 -22 -31 -2 -13 41 36 37 79 -12 118 -11 10 -16 18 -10 18 18
0 65 -40 74 -64 6 -15 9 -17 9 -5 1 27 -67 81 -91 73 -14 -4 -18 -2 -14 5 4 6
3 11 -3 11 -5 0 -12 -4 -15 -8z"/>
<path d="M1040 1924 c0 -23 60 -102 119 -156 60 -56 173 -120 236 -133 17 -4
-6 9 -51 27 -125 52 -225 134 -278 228 -14 25 -26 40 -26 34z"/>
<path d="M1785 1905 c17 -15 38 -37 49 -49 l18 -21 -14 24 c-8 14 -30 36 -49
49 l-34 25 30 -28z"/>
<path d="M1588 1894 c26 -18 29 -59 5 -73 -10 -6 -13 -11 -7 -11 17 0 34 22
34 45 0 22 -28 55 -46 55 -4 0 2 -7 14 -16z"/>
<path d="M1330 1875 c0 -31 110 -115 150 -115 8 0 -8 11 -35 24 -28 12 -65 39
-83 60 -17 20 -32 34 -32 31z"/>
<path d="M2147 1813 c18 -38 39 -93 47 -123 8 -30 15 -46 15 -34 1 11 -6 42
-15 68 -22 64 -11 69 20 9 14 -26 25 -44 26 -40 1 21 -105 187 -120 187 -3 0
9 -30 27 -67z"/>
<path d="M1720 1831 c0 -10 -9 -30 -21 -45 -22 -28 -19 -32 11 -16 12 7 17 16
13 27 -4 11 -3 14 5 9 8 -5 12 1 12 18 0 14 -4 26 -10 26 -5 0 -10 -8 -10 -19z"/>
<path d="M1857 1784 c6 -68 11 -77 12 -24 0 25 -3 51 -8 59 -5 8 -7 -5 -4 -35z"/>
<path d="M1452 1809 c7 -5 38 -8 68 -8 66 1 56 6 -23 12 -32 2 -52 0 -45 -4z"/>
<path d="M1760 1781 c0 -6 -14 -26 -30 -45 -37 -42 -105 -61 -194 -53 -36 3
-53 1 -41 -3 47 -20 215 -2 215 22 0 5 4 7 10 3 15 -9 50 32 43 51 -4 12 -3
15 5 10 7 -4 12 -3 12 3 0 5 -4 13 -10 16 -5 3 -10 2 -10 -4z"/>
<path d="M1995 1743 c-17 -92 -72 -160 -167 -208 -39 -19 -65 -35 -59 -35 20
0 109 49 144 79 39 35 83 111 92 164 4 20 5 37 2 37 -3 0 -8 -17 -12 -37z"/>
<path d="M2042 1742 c-4 -90 -89 -204 -178 -238 -24 -9 -42 -19 -40 -21 9 -9
93 35 130 67 53 47 98 140 93 193 l-4 42 -1 -43z"/>
<path d="M760 1765 c0 -41 141 -219 221 -279 32 -25 53 -46 47 -48 -7 -3 -19
2 -27 9 -7 8 -16 11 -19 8 -19 -18 236 -164 288 -165 8 0 -21 15 -65 33 -81
33 -171 85 -162 93 2 3 16 0 31 -6 54 -20 46 -9 -26 40 -109 72 -185 152 -255
269 -18 30 -33 51 -33 46z"/>
<path d="M1830 1685 c-13 -14 -46 -34 -74 -44 -28 -11 -44 -20 -36 -20 27 -1
118 47 130 68 14 28 9 26 -20 -4z"/>
<path d="M2283 1610 c0 -41 2 -58 4 -37 2 20 2 54 0 75 -2 20 -4 3 -4 -38z"/>
<path d="M1894 1650 c-5 -5 -33 -22 -63 -38 -31 -17 -48 -32 -42 -36 6 -4 26
2 44 13 47 31 94 71 82 71 -6 0 -15 -4 -21 -10z"/>
<path d="M2104 1652 c-14 -9 -14 -40 1 -46 6 -2 17 5 24 16 11 18 11 20 -3 15
-10 -4 -13 -1 -9 9 6 16 3 17 -13 6z"/>
<path d="M960 1596 c46 -50 209 -157 286 -190 64 -26 198 -66 223 -66 31 0 -6
17 -64 30 -137 29 -270 97 -420 216 -57 45 -58 46 -25 10z"/>
<path d="M2260 1560 c0 -29 3 -50 7 -46 7 7 5 87 -3 95 -2 2 -4 -20 -4 -49z"/>
<path d="M1595 1550 c-31 -5 -20 -7 44 -7 54 -1 79 2 70 8 -16 10 -54 10 -114
-1z"/>
<path d="M1415 1485 c22 -8 49 -13 60 -13 11 0 -2 6 -30 14 -63 17 -84 16 -30
-1z"/>
<path d="M2166 1441 c-24 -53 -97 -122 -181 -170 -38 -23 -65 -41 -59 -41 23
0 175 103 202 137 33 42 66 103 59 109 -2 2 -12 -13 -21 -35z"/>
<path d="M1618 1453 c23 -2 61 -2 85 0 23 2 4 4 -43 4 -47 0 -66 -2 -42 -4z"/>
<path d="M2035 1392 c-33 -32 -73 -68 -89 -80 -16 -12 -26 -25 -23 -28 3 -3
14 3 25 14 11 11 22 18 25 16 6 -7 101 87 116 114 6 12 10 22 9 22 -2 0 -30
-26 -63 -58z"/>
<path d="M1380 1425 c59 -20 150 -31 150 -18 0 6 -28 13 -62 16 -35 3 -79 9
-98 11 -31 5 -29 4 10 -9z"/>
<path d="M1705 1420 c-27 -5 -77 -9 -110 -9 -46 -1 -56 -4 -42 -12 12 -7 45
-7 105 0 91 11 172 30 122 29 -14 0 -47 -4 -75 -8z"/>
<path d="M1593 1353 c-67 -3 -103 -8 -103 -15 0 -14 198 -4 213 11 6 6 7 10 2
9 -6 -1 -56 -4 -112 -5z"/>
<path d="M1770 1304 l-35 -14 35 6 c33 6 34 5 15 -10 -33 -25 -12 -18 25 9 26
19 29 25 14 24 -10 0 -35 -7 -54 -15z"/>
<path d="M1360 1215 c0 -16 55 -22 130 -15 l85 8 -87 -1 c-47 -1 -84 1 -81 6
2 4 -7 7 -21 7 -14 0 -26 -2 -26 -5z"/>
</g>
</svg>